<?xml version="1.0" encoding="UTF-8"?>
<svg xmlns="http://www.w3.org/2000/svg" xmlns:xlink="http://www.w3.org/1999/xlink" width="40px" height="30px" viewBox="0 0 40 30" version="1.1">
<g id="surface1">
<path style=" stroke:none;fill-rule:nonzero;fill:rgb(0%,0%,0%);fill-opacity:1;" d="M 19.933594 10.011719 C 19.414062 10.59375 18.910156 11.296875 18.683594 11.746094 C 18.488281 12.140625 18.476562 12.195312 18.480469 12.570312 C 18.484375 12.886719 18.519531 13.078125 18.640625 13.441406 C 18.730469 13.695312 18.800781 13.914062 18.800781 13.929688 C 18.800781 13.941406 18.679688 13.949219 18.535156 13.949219 C 18.390625 13.949219 18.15625 13.980469 18.015625 14.015625 C 17.851562 14.058594 17.71875 14.066406 17.644531 14.035156 C 17.453125 13.964844 16.921875 13.984375 16.648438 14.074219 C 16.320312 14.183594 15.941406 14.535156 15.765625 14.886719 C 15.65625 15.113281 15.625 15.253906 15.609375 15.621094 C 15.578125 16.34375 15.59375 16.378906 15.789062 15.988281 C 15.980469 15.601562 16.296875 15.296875 16.605469 15.203125 C 16.753906 15.160156 16.96875 15.148438 17.328125 15.175781 L 17.851562 15.210938 L 18.023438 15.035156 C 18.25 14.808594 18.269531 14.539062 18.074219 14.308594 C 17.921875 14.125 17.964844 14.101562 18.445312 14.101562 C 19.636719 14.101562 20.71875 14.753906 21.230469 15.78125 C 21.398438 16.125 21.40625 16.140625 21.335938 16.316406 C 21.195312 16.644531 20.960938 16.710938 20.246094 16.625 C 19.984375 16.59375 19.878906 16.605469 19.746094 16.671875 C 19.273438 16.894531 19.289062 17.640625 19.769531 17.871094 C 20.414062 18.175781 21.140625 18.03125 21.621094 17.496094 C 21.941406 17.144531 22.074219 16.664062 21.988281 16.183594 C 21.941406 15.925781 21.703125 15.453125 21.476562 15.171875 L 21.351562 15.015625 L 21.683594 14.898438 C 22.976562 14.46875 23.210938 13.96875 23.328125 11.390625 L 23.363281 10.679688 L 23.21875 10.769531 C 23 10.914062 22.519531 11.28125 22.09375 11.636719 L 21.710938 11.949219 L 21.480469 11.820312 C 21.355469 11.75 21.144531 11.675781 21.015625 11.660156 L 20.785156 11.625 L 20.675781 10.964844 C 20.570312 10.335938 20.371094 9.648438 20.296875 9.648438 C 20.273438 9.648438 20.113281 9.816406 19.933594 10.011719 Z M 20.085938 12.304688 C 20.554688 12.738281 20.289062 13.449219 19.664062 13.449219 C 18.980469 13.449219 18.765625 12.546875 19.375 12.226562 C 19.578125 12.113281 19.921875 12.15625 20.085938 12.304688 Z M 21.828125 12.746094 C 22.351562 12.980469 22.46875 13.546875 22.09375 13.976562 C 21.699219 14.425781 20.976562 14.246094 20.796875 13.660156 C 20.679688 13.265625 20.929688 12.820312 21.335938 12.710938 C 21.601562 12.640625 21.601562 12.640625 21.828125 12.746094 Z M 21.828125 12.746094 "/>
<path style=" stroke:none;fill-rule:nonzero;fill:rgb(0%,0%,0%);fill-opacity:1;" d="M 19.628906 12.503906 C 19.523438 12.625 19.511719 12.675781 19.554688 12.730469 C 19.601562 12.785156 19.59375 12.800781 19.53125 12.800781 C 19.46875 12.800781 19.449219 12.851562 19.449219 13.023438 C 19.449219 13.304688 19.539062 13.320312 19.730469 13.070312 C 19.828125 12.945312 19.875 12.816406 19.890625 12.621094 C 19.914062 12.296875 19.835938 12.261719 19.628906 12.503906 Z M 19.628906 12.503906 "/>
<path style=" stroke:none;fill-rule:nonzero;fill:rgb(0%,0%,0%);fill-opacity:1;" d="M 21.628906 13.003906 C 21.558594 13.058594 21.476562 13.15625 21.445312 13.214844 C 21.394531 13.300781 21.40625 13.335938 21.5 13.410156 L 21.609375 13.5 L 21.460938 13.5 C 21.296875 13.5 21.25 13.570312 21.25 13.824219 C 21.25 14.039062 21.324219 14.085938 21.488281 13.964844 C 21.691406 13.816406 21.851562 13.46875 21.851562 13.195312 C 21.851562 12.910156 21.804688 12.871094 21.628906 13.003906 Z M 21.628906 13.003906 "/>
<path style=" stroke:none;fill-rule:nonzero;fill:rgb(0%,0%,0%);fill-opacity:1;" d="M 15.664062 16.445312 C 15.449219 16.578125 15.351562 16.785156 15.320312 17.164062 C 15.285156 17.535156 15.390625 18.035156 15.578125 18.410156 C 15.738281 18.726562 16.179688 19.164062 16.570312 19.394531 C 16.886719 19.578125 16.976562 19.570312 16.808594 19.359375 C 16.746094 19.285156 16.625 19.078125 16.535156 18.898438 C 16.316406 18.453125 16.285156 17.886719 16.453125 17.324219 C 16.550781 17.003906 16.554688 16.921875 16.503906 16.753906 C 16.40625 16.410156 15.976562 16.25 15.664062 16.445312 Z M 15.664062 16.445312 "/>
<path style=" stroke:none;fill-rule:nonzero;fill:rgb(0%,0%,0%);fill-opacity:1;" d="M 17.34375 17.015625 C 17.046875 17.15625 16.921875 17.351562 16.851562 17.785156 C 16.714844 18.609375 17.144531 19.574219 17.824219 19.96875 C 18.375 20.296875 19.386719 20.429688 20.089844 20.28125 C 20.738281 20.144531 21.160156 19.898438 21.703125 19.34375 C 22.195312 18.855469 22.351562 18.738281 22.636719 18.679688 C 22.980469 18.605469 23.460938 18.875 23.53125 19.191406 C 23.660156 19.769531 23.714844 19.851562 23.984375 19.851562 C 24.324219 19.851562 24.699219 19.296875 24.699219 18.800781 C 24.699219 18.320312 24.210938 17.695312 23.699219 17.523438 C 23.199219 17.355469 22.523438 17.433594 22.050781 17.714844 C 21.683594 17.929688 21.480469 18.128906 21.21875 18.53125 C 20.878906 19.046875 20.429688 19.46875 19.964844 19.714844 C 19.199219 20.113281 18.703125 20.023438 18.386719 19.425781 C 18.296875 19.261719 18.273438 19.136719 18.273438 18.75 C 18.273438 18.488281 18.296875 18.125 18.320312 17.941406 C 18.371094 17.539062 18.28125 17.234375 18.066406 17.078125 C 17.910156 16.964844 17.523438 16.929688 17.34375 17.015625 Z M 17.34375 17.015625 "/>
</g>
</svg>
